<?xml version="1.0" encoding="UTF-8" standalone="no"?>
<svg
   width="64"
   height="64"
   version="1.1"
   id="svg23117"
   sodipodi:docname="timeshift.svg"
   inkscape:version="1.3.2 (091e20ef0f, 2023-11-25)"
   xmlns:inkscape="http://www.inkscape.org/namespaces/inkscape"
   xmlns:sodipodi="http://sodipodi.sourceforge.net/DTD/sodipodi-0.dtd"
   xmlns:xlink="http://www.w3.org/1999/xlink"
   xmlns="http://www.w3.org/2000/svg"
   xmlns:svg="http://www.w3.org/2000/svg">
  <sodipodi:namedview
     id="namedview23119"
     pagecolor="#ffffff"
     bordercolor="#666666"
     borderopacity="1.0"
     inkscape:showpageshadow="2"
     inkscape:pageopacity="0.0"
     inkscape:pagecheckerboard="0"
     inkscape:deskcolor="#d1d1d1"
     showgrid="false"
     inkscape:zoom="4.9166667"
     inkscape:cx="24.406779"
     inkscape:cy="18.20339"
     inkscape:window-width="1920"
     inkscape:window-height="994"
     inkscape:window-x="0"
     inkscape:window-y="0"
     inkscape:window-maximized="1"
     inkscape:current-layer="svg23117" />
  <defs
     id="defs23105">
    <linearGradient
       id="a"
       y1="547.63397"
       y2="499.67899"
       x2="388.86499"
       gradientUnits="userSpaceOnUse"
       gradientTransform="translate(-453.04388,-539.81483)"
       x1="428.81601">
      <stop
         stop-color="#2a2c2f"
         id="stop23090" />
      <stop
         offset="1"
         stop-color="#536161"
         id="stop23092" />
    </linearGradient>
    <linearGradient
       id="b"
       y1="44"
       y2="12"
       x2="14"
       gradientUnits="userSpaceOnUse"
       x1="36"
       gradientTransform="translate(-68.473879,-40.014831)">
      <stop
         stop-color="#536161"
         style="stop-color:#bfc9c9;stop-opacity:1"
         id="stop23095" />
      <stop
         offset="1"
         stop-color="#f4f5f5"
         style="stop-color:#fbfbfb;stop-opacity:1"
         id="stop23097" />
    </linearGradient>
    <linearGradient
       id="c"
       y1="527.01398"
       x1="406.50101"
       y2="539.82501"
       x2="419.974"
       gradientUnits="userSpaceOnUse"
       gradientTransform="translate(-453.04388,-539.81483)">
      <stop
         stop-color="#292c2f"
         id="stop23100" />
      <stop
         offset="1"
         stop-opacity="0"
         id="stop23102" />
    </linearGradient>
    <linearGradient
       inkscape:collect="always"
       xlink:href="#linearGradient22063"
       id="linearGradient22065"
       x1="-14"
       y1="6"
       x2="-14"
       y2="-9.999999"
       gradientUnits="userSpaceOnUse"
       gradientTransform="matrix(3.6250002,0,0,3.6250002,82.750005,39.249999)" />
    <linearGradient
       inkscape:collect="always"
       id="linearGradient22063">
      <stop
         style="stop-color:#b64954;stop-opacity:1;"
         offset="0"
         id="stop22059" />
      <stop
         style="stop-color:#c66c77;stop-opacity:1;"
         offset="1"
         id="stop22061" />
    </linearGradient>
    <linearGradient
       id="c-3"
       gradientUnits="userSpaceOnUse"
       x1="13"
       x2="27"
       y1="16"
       y2="30"
       gradientTransform="matrix(2,0,0,2,0,0.9779996)">
      <stop
         offset="0"
         id="stop157" />
      <stop
         offset="1"
         stop-opacity="0"
         id="stop159" />
    </linearGradient>
    <linearGradient
       id="b-6"
       gradientUnits="userSpaceOnUse"
       x1="6"
       x2="48"
       y1="9"
       y2="51"
       gradientTransform="matrix(2,0,0,2,0,0.9779996)">
      <stop
         offset="0"
         stop-color="#fcfcfc"
         id="stop152" />
      <stop
         offset="1"
         stop-color="#e74c3c"
         id="stop154" />
    </linearGradient>
    <linearGradient
       id="a-3"
       y1="32.998001"
       x1="34.5"
       y2="11.998"
       gradientUnits="userSpaceOnUse"
       x2="11.786">
      <stop
         stop-color="#dd1627"
         id="stop151" />
      <stop
         offset="1"
         stop-color="#df3e52"
         id="stop153" />
    </linearGradient>
    <linearGradient
       id="b-67"
       y1="10.38"
       x1="46.23"
       y2="35.662998"
       x2="73.029999"
       gradientUnits="userSpaceOnUse"
       gradientTransform="translate(-52)">
      <stop
         stop-color="#f8bac0"
         stop-opacity=".731"
         id="stop156" />
      <stop
         offset="1"
         stop-color="#f8bac0"
         stop-opacity="0"
         id="stop158" />
    </linearGradient>
    <linearGradient
       id="a-35"
       y1="32.998001"
       x1="34.5"
       y2="11.998"
       gradientUnits="userSpaceOnUse"
       x2="11.786"
       gradientTransform="translate(69.385804,-36.717377)">
      <stop
         stop-color="#dd1627"
         id="stop151-6" />
      <stop
         offset="1"
         stop-color="#df3e52"
         id="stop153-2" />
    </linearGradient>
    <linearGradient
       inkscape:collect="always"
       xlink:href="#b-67"
       id="linearGradient868"
       gradientUnits="userSpaceOnUse"
       gradientTransform="translate(-52)"
       x1="46.23"
       y1="10.38"
       x2="73.029999"
       y2="35.662998" />
    <linearGradient
       id="a-9"
       y1="32.998001"
       x1="34.5"
       y2="11.998"
       gradientUnits="userSpaceOnUse"
       x2="11.786"
       gradientTransform="matrix(1.1718437,0,0,1.1718437,3.1850126,4.706508)">
      <stop
         stop-color="#dd1627"
         id="stop151-3"
         offset="0"
         style="stop-color:#bf616a;stop-opacity:1;" />
      <stop
         offset="1"
         stop-color="#df3e52"
         id="stop153-6" />
    </linearGradient>
    <linearGradient
       inkscape:collect="always"
       xlink:href="#b-67"
       id="linearGradient1048"
       gradientUnits="userSpaceOnUse"
       gradientTransform="translate(-52)"
       x1="46.23"
       y1="10.38"
       x2="73.029999"
       y2="35.662998" />
    <linearGradient
       id="b-3"
       y1="17"
       x1="18"
       y2="32"
       x2="33"
       gradientUnits="userSpaceOnUse"
       gradientTransform="matrix(2.1832503,0,0,2.1832503,-20.3229,-18.72182)">
      <stop
         stop-color="#383e51"
         id="stop174" />
      <stop
         offset="1"
         stop-color="#655c6f"
         stop-opacity="0"
         id="stop176" />
    </linearGradient>
    <linearGradient
       id="a-6"
       y1="32"
       y2="16"
       x2="0"
       gradientUnits="userSpaceOnUse"
       gradientTransform="matrix(2.1832503,0,0,2.1832503,-20.3229,-18.72182)">
      <stop
         stop-color="#f7abb2"
         id="stop169" />
      <stop
         offset="1"
         stop-color="#f9dce0"
         id="stop171" />
    </linearGradient>
    <linearGradient
       xlink:href="#linearGradient4801"
       id="linearGradient4809"
       x1="21.974001"
       y1="13.094"
       x2="39.379002"
       y2="30.499001"
       gradientUnits="userSpaceOnUse"
       gradientTransform="matrix(1.512535,0,0,1.512535,0.23676464,-4.7286354)" />
    <linearGradient
       id="linearGradient4801">
      <stop
         style="stop-color:#000000;stop-opacity:1;"
         offset="0"
         id="stop176-3" />
      <stop
         style="stop-color:#000000;stop-opacity:0;"
         offset="1"
         id="stop178" />
    </linearGradient>
    <linearGradient
       xlink:href="#linearGradient4801"
       id="linearGradient4811"
       x1="21.948999"
       y1="22.740999"
       x2="34.498001"
       y2="35.291"
       gradientUnits="userSpaceOnUse"
       gradientTransform="matrix(1.512535,0,0,1.512535,0.23676464,-4.7286354)" />
  </defs>
  <path
     d="M 3,10.25 C 3,6.245825 6.245938,3 10.25,3 h 43.500005 c 4.00417,0 7.25,3.245825 7.25,7.25 v 43.5 c 0,4.004173 -3.24583,7.25 -7.25,7.25 H 10.25 C 6.245938,61 3,57.754173 3,53.75 Z"
     id="path736"
     style="fill:#606c86;fill-opacity:1;stroke-width:3.625" />
  <path
     d="M 3,9.796875 C 3,6.043188 6.245938,3 10.25,3 h 43.500005 c 4.00417,0 7.25,3.043188 7.25,6.796875 v 40.781249 c 0,3.753693 -3.24583,6.796876 -7.25,6.796876 H 10.25 C 6.245938,57.375 3,54.331817 3,50.578124 Z"
     id="path738"
     style="fill:url(#linearGradient22065);fill-opacity:1;stroke-width:3.625" />
  <use
     xlink:href="#c"
     id="use164"
     transform="translate(-82.546399,-28.175004)" />
  <use
     xlink:href="#c"
     id="use164-7"
     transform="translate(69.385804,-36.717377)" />
  <use
     xlink:href="#c"
     id="use168-0"
     style="color:#000000;fill:url(#linearGradient868)"
     transform="translate(69.385804,-36.717377)" />
  <use
     xlink:href="#c"
     id="use164-6"
     transform="matrix(1.1718437,0,0,1.1718437,-26.829206,-56.665225)" />
  <use
     xlink:href="#c"
     id="use168-8"
     style="color:#000000;fill:url(#linearGradient1048)"
     transform="matrix(1.1718437,0,0,1.1718437,-26.829206,-56.665225)" />
  <path
     d="m 28.091226,26.329485 c -3.877117,0.301321 -6.725635,0.09861 -8.73132,-0.254717 Q 9.937138,23.680324 12.308529,17.338315 c 1.3086,-1.495809 2.54857,-2.405334 4.679938,-2.032716 8.599932,1.493025 16.531281,4.31477 23.399735,4.366781 5.51424,0.04078 10.388474,-2.224482 14.042771,-4.427089 0.705689,-1.378002 0.08269,-2.235454 -1.748554,-2.454616 -2.745654,1.602611 -5.282784,2.479301 -7.488468,2.753243 C 35.708317,16.442462 23.602685,9.8593715 16.488478,11.174376 Q 9.374316,12.492126 9,20.390228 c 0.671444,6.037915 8.145628,8.744595 17.448383,8.48708 q -0.01809,0.03657 -0.03802,0.06812 c -2.371566,2.813495 -3.245844,6.583115 -3.431541,10.651334 -0.160044,3.468275 1.717132,6.481726 4.305662,9.034994 q 5.054232,3.531234 10.357051,1.797125 8.862718,-2.753223 10.796991,-11.908778 -0.248351,-5.503718 -5.428522,-6.281731 -6.991338,0.178157 -11.234162,9.034976 c 0.271377,1.695796 0.957131,2.09303 2.434252,1.435504 2.034295,-4.838031 6.302814,-8.914447 9.111389,-7.777528 2.808503,1.136915 1.434242,9.213063 -6.365681,13.163476 q -4.928541,1.435442 -7.36281,-1.676723 -4.517072,-6.38037 2.554252,-18.039841 c 2.842869,-0.411075 5.754267,-1.060222 8.614215,-1.945077 1.071431,-0.789002 1.874243,-0.536939 1.32569,-1.780707 -0.545696,-1.241005 -0.97996,-0.583529 -2.385635,-0.553366 q -3.142831,0.991701 -5.737105,1.473853 1.64858,-2.399828 3.73994,-5.00239 -1.459941,-0.580782 -2.308552,-0.599936 -1.248533,0.657448 -3.682814,1.435479 -2.262824,2.975149 -3.622807,4.922967 z"
     id="path2-3"
     style="isolation:isolate;fill:#000000;fill-opacity:1;stroke-width:2.79751" />
</svg>
